<?xml version="1.0" standalone="no"?>
<!DOCTYPE svg PUBLIC "-//W3C//DTD SVG 20010904//EN"
 "http://www.w3.org/TR/2001/REC-SVG-20010904/DTD/svg10.dtd">
<svg version="1.0" xmlns="http://www.w3.org/2000/svg"
 width="88.000000pt" height="88.000000pt" viewBox="0 0 88.000000 88.000000"
 preserveAspectRatio="xMidYMid meet">

<g transform="translate(0.000000,88.000000) scale(0.100000,-0.100000)"
fill="#000000" stroke="none">
<path d="M321 835 c-37 -16 -72 -56 -83 -93 -4 -13 -10 -58 -13 -100 -4 -42
-11 -95 -16 -117 -5 -22 -9 -54 -9 -71 0 -37 33 -76 57 -67 11 4 14 3 9 -5 -4
-7 -1 -13 6 -13 7 -1 18 -2 23 -4 6 -1 16 -3 23 -3 10 -2 12 -11 7 -34 -4 -22
-3 -28 3 -19 8 11 10 11 15 0 3 -8 6 -2 6 14 1 25 21 41 21 16 0 -5 5 -7 11
-4 6 4 8 13 5 21 -3 9 6 17 27 23 18 5 24 10 15 10 -37 2 -16 21 22 21 27 0
43 5 46 15 9 22 24 18 24 -6 l0 -20 26 20 c15 11 30 19 34 16 16 -10 31 25 32
72 0 93 -13 163 -33 174 -11 5 -19 20 -18 32 0 21 1 21 9 2 7 -17 9 -14 9 13
1 25 -4 35 -18 39 -11 3 -17 11 -14 18 3 9 -14 23 -46 39 -58 30 -127 34 -180
11z m124 -166 c-5 -14 -4 -19 4 -15 7 5 9 1 5 -8 -7 -20 -12 -20 64 3 58 18
63 18 60 3 -1 -9 3 -27 10 -39 7 -13 10 -35 6 -50 -3 -16 -9 -44 -13 -63 -6
-33 -9 -35 -51 -38 -25 -2 -47 -7 -50 -12 -3 -4 -26 -11 -51 -15 l-46 -7 1 41
c0 23 4 41 9 41 4 0 5 11 1 25 -8 34 2 83 26 123 23 37 35 42 25 11z m-85
-120 c0 -33 -6 -35 -38 -13 -21 14 -30 53 -16 67 14 14 54 -26 54 -54z"/>
<path d="M488 613 c6 -2 18 -2 25 0 6 3 1 5 -13 5 -14 0 -19 -2 -12 -5z"/>
<path d="M500 390 c0 -5 -8 -6 -17 -4 -13 3 -29 -12 -54 -49 -26 -37 -51 -59
-88 -77 -28 -14 -51 -29 -51 -33 0 -5 5 -5 10 -2 6 3 10 1 10 -4 0 -20 -22
-11 -27 10 -6 21 -6 21 -19 -2 -19 -35 -17 -87 7 -157 l21 -62 168 0 168 0 18
27 c27 42 29 111 5 158 -18 34 -21 36 -21 15 0 -14 -4 -30 -8 -37 -4 -6 -7 19
-8 55 -1 88 -27 140 -77 157 -21 7 -37 9 -37 5z m-150 -145 c-7 -8 -18 -15
-24 -15 -6 0 -2 7 8 15 25 19 32 19 16 0z"/>
<path d="M716 384 c-5 -14 -4 -15 9 -4 17 14 19 20 6 20 -5 0 -12 -7 -15 -16z"/>
<path d="M663 378 c-12 -6 -23 -19 -26 -29 -7 -26 1 -24 25 6 11 14 24 22 30
19 7 -4 8 -2 4 4 -4 7 -8 12 -9 11 -1 0 -12 -5 -24 -11z"/>
<path d="M664 348 c-4 -7 -3 -8 5 -4 7 4 14 -2 20 -15 8 -23 8 -23 13 4 4 21
1 27 -13 27 -10 0 -21 -5 -25 -12z"/>
</g>
</svg>
